<?xml version="1.0" encoding="iso-8859-1"?>
<!-- Generator: Adobe Illustrator 19.0.0, SVG Export Plug-In . SVG Version: 6.00 Build 0)  -->
<svg version="1.1" id="Capa_1" xmlns="http://www.w3.org/2000/svg" xmlns:xlink="http://www.w3.org/1999/xlink" x="0px" y="0px"
	 viewBox="0 0 177.493 177.493" style="enable-background:new 0 0 177.493 177.493;" xml:space="preserve">
<rect x="6.827" y="51.2" style="fill:#83D816;" width="40.96" height="40.96"/>
<path d="M47.787,95.573H6.827c-1.884,0-3.413-1.529-3.413-3.413V51.2c0-1.884,1.529-3.413,3.413-3.413h40.96
	c1.884,0,3.413,1.529,3.413,3.413v40.96C51.2,94.044,49.671,95.573,47.787,95.573z M10.24,88.747h34.133V54.613H10.24V88.747z"/>
<rect x="47.787" y="51.2" style="fill:#83D816;" width="40.96" height="40.96"/>
<path d="M88.747,95.573h-40.96c-1.884,0-3.413-1.529-3.413-3.413V51.2c0-1.884,1.529-3.413,3.413-3.413h40.96
	c1.884,0,3.413,1.529,3.413,3.413v40.96C92.16,94.044,90.631,95.573,88.747,95.573z M51.2,88.747h34.133V54.613H51.2V88.747z"/>
<rect x="88.747" y="51.2" style="fill:#83D816;" width="40.96" height="40.96"/>
<path d="M129.707,95.573h-40.96c-1.884,0-3.413-1.529-3.413-3.413V51.2c0-1.884,1.529-3.413,3.413-3.413h40.96
	c1.884,0,3.413,1.529,3.413,3.413v40.96C133.12,94.044,131.591,95.573,129.707,95.573z M92.16,88.747h34.133V54.613H92.16V88.747z"
	/>
<rect x="129.707" y="51.2" style="fill:#DDDDDD;" width="40.96" height="40.96"/>
<path d="M170.667,95.573h-40.96c-1.884,0-3.413-1.529-3.413-3.413V51.2c0-1.884,1.529-3.413,3.413-3.413h40.96
	c1.884,0,3.413,1.529,3.413,3.413v40.96C174.08,94.044,172.551,95.573,170.667,95.573z M133.12,88.747h34.133V54.613H133.12V88.747z
	"/>
<rect x="6.827" y="92.16" style="fill:#83D816;" width="40.96" height="40.96"/>
<path d="M47.787,136.533H6.827c-1.884,0-3.413-1.529-3.413-3.413V92.16c0-1.884,1.529-3.413,3.413-3.413h40.96
	c1.884,0,3.413,1.529,3.413,3.413v40.96C51.2,135.004,49.671,136.533,47.787,136.533z M10.24,129.707h34.133V95.573H10.24V129.707z"
	/>
<rect x="47.787" y="92.16" style="fill:#DDDDDD;" width="40.96" height="40.96"/>
<path d="M88.747,136.533h-40.96c-1.884,0-3.413-1.529-3.413-3.413V92.16c0-1.884,1.529-3.413,3.413-3.413h40.96
	c1.884,0,3.413,1.529,3.413,3.413v40.96C92.16,135.004,90.631,136.533,88.747,136.533z M51.2,129.707h34.133V95.573H51.2V129.707z"
	/>
<rect x="88.747" y="92.16" style="fill:#83D816;" width="40.96" height="40.96"/>
<path d="M129.707,136.533h-40.96c-1.884,0-3.413-1.529-3.413-3.413V92.16c0-1.884,1.529-3.413,3.413-3.413h40.96
	c1.884,0,3.413,1.529,3.413,3.413v40.96C133.12,135.004,131.591,136.533,129.707,136.533z M92.16,129.707h34.133V95.573H92.16
	V129.707z"/>
<rect x="129.707" y="92.16" style="fill:#83D816;" width="40.96" height="40.96"/>
<path d="M170.667,136.533h-40.96c-1.884,0-3.413-1.529-3.413-3.413V92.16c0-1.884,1.529-3.413,3.413-3.413h40.96
	c1.884,0,3.413,1.529,3.413,3.413v40.96C174.08,135.004,172.551,136.533,170.667,136.533z M133.12,129.707h34.133V95.573H133.12
	V129.707z"/>
<rect x="6.827" y="133.12" style="fill:#DDDDDD;" width="40.96" height="40.96"/>
<path d="M47.787,177.493H6.827c-1.884,0-3.413-1.529-3.413-3.413v-40.96c0-1.884,1.529-3.413,3.413-3.413h40.96
	c1.884,0,3.413,1.529,3.413,3.413v40.96C51.2,175.964,49.671,177.493,47.787,177.493z M10.24,170.667h34.133v-34.133H10.24V170.667z
	"/>
<rect x="47.787" y="133.12" style="fill:#DDDDDD;" width="40.96" height="40.96"/>
<path d="M88.747,177.493h-40.96c-1.884,0-3.413-1.529-3.413-3.413v-40.96c0-1.884,1.529-3.413,3.413-3.413h40.96
	c1.884,0,3.413,1.529,3.413,3.413v40.96C92.16,175.964,90.631,177.493,88.747,177.493z M51.2,170.667h34.133v-34.133H51.2V170.667z"
	/>
<rect x="88.747" y="133.12" style="fill:#83D816;" width="40.96" height="40.96"/>
<path d="M129.707,177.493h-40.96c-1.884,0-3.413-1.529-3.413-3.413v-40.96c0-1.884,1.529-3.413,3.413-3.413h40.96
	c1.884,0,3.413,1.529,3.413,3.413v40.96C133.12,175.964,131.591,177.493,129.707,177.493z M92.16,170.667h34.133v-34.133H92.16
	V170.667z"/>
<rect x="129.707" y="133.12" style="fill:#DDDDDD;" width="40.96" height="40.96"/>
<path d="M170.667,177.493h-40.96c-1.884,0-3.413-1.529-3.413-3.413v-40.96c0-1.884,1.529-3.413,3.413-3.413h40.96
	c1.884,0,3.413,1.529,3.413,3.413v40.96C174.08,175.964,172.551,177.493,170.667,177.493z M133.12,170.667h34.133v-34.133H133.12
	V170.667z"/>
<polyline style="fill:#83D816;" points="17.067,71.68 27.307,78.507 37.547,61.44 "/>
<path d="M27.307,81.92c-0.669,0-1.328-0.196-1.893-0.573l-10.24-6.827c-1.568-1.044-1.992-3.164-0.947-4.733
	c1.044-1.568,3.164-1.995,4.733-0.947l7.262,4.842l8.399-13.998c0.969-1.618,3.065-2.14,4.683-1.171
	c1.616,0.969,2.14,3.067,1.171,4.683l-10.24,17.067c-0.48,0.8-1.266,1.369-2.178,1.574C27.808,81.893,27.556,81.92,27.307,81.92z"/>
<polyline style="fill:#83D816;" points="17.067,112.64 27.307,119.467 37.547,102.4 "/>
<path d="M27.307,122.88c-0.669,0-1.328-0.196-1.893-0.573l-10.24-6.827c-1.568-1.044-1.992-3.164-0.947-4.733
	s3.164-1.995,4.733-0.947l7.262,4.842l8.399-13.998c0.969-1.616,3.065-2.142,4.683-1.171c1.616,0.969,2.14,3.067,1.171,4.683
	l-10.24,17.067c-0.48,0.8-1.266,1.369-2.178,1.574C27.808,122.853,27.556,122.88,27.307,122.88z"/>
<polyline style="fill:#83D816;" points="98.987,112.64 109.227,119.467 119.467,102.4 "/>
<path d="M109.227,122.88c-0.669,0-1.328-0.196-1.893-0.573l-10.24-6.827c-1.568-1.044-1.992-3.164-0.947-4.733
	c1.045-1.568,3.164-1.995,4.733-0.947l7.262,4.842l8.399-13.998c0.968-1.616,3.067-2.142,4.683-1.171
	c1.616,0.969,2.14,3.067,1.171,4.683l-10.24,17.067c-0.48,0.8-1.266,1.369-2.178,1.574
	C109.728,122.853,109.476,122.88,109.227,122.88z"/>
<polyline style="fill:#83D816;" points="139.947,112.64 150.187,119.467 160.427,102.4 "/>
<path d="M150.187,122.88c-0.669,0-1.328-0.196-1.893-0.573l-10.24-6.827c-1.568-1.044-1.992-3.164-0.947-4.733
	c1.046-1.568,3.164-1.995,4.733-0.947l7.262,4.842l8.399-13.998c0.968-1.616,3.065-2.142,4.683-1.171
	c1.616,0.969,2.14,3.067,1.171,4.683l-10.24,17.067c-0.48,0.8-1.266,1.369-2.178,1.574
	C150.688,122.853,150.436,122.88,150.187,122.88z"/>
<polyline style="fill:#83D816;" points="58.027,71.68 68.267,78.507 78.507,61.44 "/>
<path d="M68.267,81.92c-0.669,0-1.328-0.196-1.893-0.573l-10.24-6.827c-1.568-1.044-1.992-3.164-0.947-4.733
	c1.045-1.568,3.162-1.995,4.733-0.947l7.262,4.842l8.399-13.998c0.969-1.618,3.067-2.14,4.683-1.171
	c1.616,0.969,2.14,3.067,1.171,4.683l-10.24,17.067c-0.48,0.8-1.266,1.369-2.178,1.574C68.768,81.893,68.516,81.92,68.267,81.92z"/>
<polyline style="fill:#83D816;" points="98.987,71.68 109.227,78.507 119.467,61.44 "/>
<path d="M109.227,81.92c-0.669,0-1.328-0.196-1.893-0.573l-10.24-6.827c-1.568-1.044-1.992-3.164-0.947-4.733
	c1.045-1.568,3.164-1.995,4.733-0.947l7.262,4.842l8.399-13.998c0.968-1.618,3.067-2.14,4.683-1.171
	c1.616,0.969,2.14,3.067,1.171,4.683l-10.24,17.067c-0.48,0.8-1.266,1.369-2.178,1.574C109.728,81.893,109.476,81.92,109.227,81.92z
	"/>
<polyline style="fill:#83D816;" points="98.987,153.6 109.227,160.427 119.467,143.36 "/>
<path d="M109.227,163.84c-0.669,0-1.328-0.196-1.893-0.573l-10.24-6.827c-1.568-1.044-1.992-3.164-0.947-4.733
	c1.045-1.568,3.164-1.997,4.733-0.947l7.262,4.842l8.399-13.998c0.968-1.616,3.067-2.142,4.683-1.171
	c1.616,0.969,2.14,3.067,1.171,4.683l-10.24,17.067c-0.48,0.8-1.266,1.369-2.178,1.574
	C109.728,163.813,109.476,163.84,109.227,163.84z"/>
<rect x="6.827" y="17.067" style="fill:#777777;" width="163.84" height="34.133"/>
<path d="M170.667,54.613H6.827c-1.884,0-3.413-1.529-3.413-3.413V17.067c0-1.884,1.529-3.413,3.413-3.413h163.84
	c1.884,0,3.413,1.529,3.413,3.413V51.2C174.08,53.084,172.551,54.613,170.667,54.613z M10.24,47.787h157.013V20.48H10.24V47.787z"/>
<path style="fill:#FEDA38;" d="M54.613,30.72L54.613,30.72c-3.77,0-6.827-3.057-6.827-6.827V10.24c0-3.77,3.057-6.827,6.827-6.827
	l0,0c3.77,0,6.827,3.057,6.827,6.827v13.653C61.44,27.663,58.383,30.72,54.613,30.72z"/>
<path d="M54.613,34.133c-5.647,0-10.24-4.593-10.24-10.24V10.24C44.373,4.593,48.966,0,54.613,0c5.647,0,10.24,4.593,10.24,10.24
	v13.653C64.853,29.541,60.261,34.133,54.613,34.133z M54.613,6.827c-1.882,0-3.413,1.531-3.413,3.413v13.653
	c0,1.882,1.531,3.413,3.413,3.413s3.413-1.531,3.413-3.413V10.24C58.027,8.358,56.496,6.827,54.613,6.827z"/>
<path style="fill:#FEDA38;" d="M122.88,30.72L122.88,30.72c-3.77,0-6.827-3.057-6.827-6.827V10.24c0-3.77,3.057-6.827,6.827-6.827
	l0,0c3.77,0,6.827,3.057,6.827,6.827v13.653C129.707,27.663,126.65,30.72,122.88,30.72z"/>
<path d="M122.88,34.133c-5.647,0-10.24-4.593-10.24-10.24V10.24c0-5.647,4.593-10.24,10.24-10.24s10.24,4.593,10.24,10.24v13.653
	C133.12,29.541,128.527,34.133,122.88,34.133z M122.88,6.827c-1.882,0-3.413,1.531-3.413,3.413v13.653
	c0,1.882,1.531,3.413,3.413,3.413s3.413-1.531,3.413-3.413V10.24C126.293,8.358,124.762,6.827,122.88,6.827z"/>
<g>
</g>
<g>
</g>
<g>
</g>
<g>
</g>
<g>
</g>
<g>
</g>
<g>
</g>
<g>
</g>
<g>
</g>
<g>
</g>
<g>
</g>
<g>
</g>
<g>
</g>
<g>
</g>
<g>
</g>
</svg>
