<?xml version="1.0" encoding="iso-8859-1"?>
<!-- Generator: Adobe Illustrator 19.0.0, SVG Export Plug-In . SVG Version: 6.00 Build 0)  -->
<svg version="1.1" id="Capa_1" xmlns="http://www.w3.org/2000/svg" xmlns:xlink="http://www.w3.org/1999/xlink" x="0px" y="0px"
	 viewBox="0 0 512.013 512.013" style="enable-background:new 0 0 512.013 512.013;" xml:space="preserve">
<g>
	<g transform="translate(0 4)">
		<path style="fill:#607D8B;" d="M384.006,115.467H8.54l0,273.067c-0.002,9.053,3.593,17.737,9.995,24.139
			c6.402,6.402,15.085,9.997,24.139,9.995H469.34c9.053,0.002,17.737-3.593,24.139-9.995c6.402-6.402,9.997-15.085,9.995-24.139
			V115.467H384.006z"/>
		<path style="fill:#CFD8DC;" d="M364.586,115.467H8.54v273.067c-0.48,18.361,14.008,33.638,32.368,34.133h404.598
			c18.36-0.495,32.847-15.773,32.368-34.133V115.467H364.586z"/>
		<g>
			<rect x="256.006" y="320.267" style="fill:#607D8B;" width="128" height="102.4"/>
			<path style="fill:#607D8B;" d="M136.54,320.267v102.4H42.673c-9.053,0.002-17.737-3.593-24.139-9.995
				c-6.402-6.402-9.997-15.085-9.995-24.139l0-68.267H136.54z"/>
		</g>
		<rect x="384.006" y="226.4" style="fill:#37474F;" width="119.467" height="93.867"/>
		<g>
			<rect x="384.006" y="226.4" style="fill:#607D8B;" width="93.867" height="93.867"/>
			<rect x="256.006" y="132.533" style="fill:#607D8B;" width="119.467" height="93.867"/>
			<rect x="8.54" y="132.533" style="fill:#607D8B;" width="128" height="93.867"/>
			<rect x="136.54" y="226.4" style="fill:#607D8B;" width="119.467" height="93.867"/>
		</g>
		<path style="fill:#0377BC;" d="M503.473,64.267v68.267h-25.6V64.267c0.023-12.192-6.491-23.46-17.067-29.525v-4.608l8.533,0
			c9.053-0.003,17.737,3.593,24.139,9.995S503.476,55.213,503.473,64.267z"/>
		<path style="fill:#02A9F4;" d="M477.873,64.267l0,68.267H8.54V64.267c0.045-18.832,15.301-34.088,34.133-34.133h8.533v25.6
			c-0.024,13.9,8.429,26.409,21.333,31.573c4.046,1.722,8.403,2.594,12.8,2.56c9.053,0.002,17.737-3.593,24.139-9.995
			c6.402-6.402,9.997-15.085,9.995-24.139v-25.6H392.54v25.6c-0.024,13.9,8.429,26.409,21.333,31.573
			c4.046,1.722,8.403,2.594,12.8,2.56c9.053,0.002,17.737-3.593,24.139-9.995c6.402-6.402,9.997-15.085,9.995-24.139V34.741
			C471.382,40.807,477.896,52.075,477.873,64.267z"/>
		<circle style="fill:#AD1457;" cx="349.873" cy="345.867" r="153.6"/>
		<ellipse style="fill:#E91E63;" cx="337.073" cy="345.867" rx="140.8" ry="153.6"/>
		<circle style="fill:#F5F5F5;" cx="349.873" cy="345.867" r="119.467"/>
	</g>
	<g>
		<path d="M93.873,59.733v-51.2C93.873,3.821,90.052,0,85.34,0c-4.713,0-8.533,3.821-8.533,8.533v51.2
			c0,4.713,3.82,8.533,8.533,8.533C90.052,68.267,93.873,64.446,93.873,59.733z"/>
		<path d="M469.34,25.6h-8.533c-2.263-0.001-4.434,0.898-6.035,2.499c-1.6,1.6-2.499,3.771-2.499,6.035v25.6
			c0,14.138-11.462,25.6-25.6,25.6c-14.138,0-25.6-11.462-25.6-25.6v-25.6c0.001-2.263-0.898-4.434-2.499-6.035
			c-1.6-1.6-3.771-2.499-6.035-2.499H119.473c-2.263-0.001-4.434,0.898-6.035,2.499c-1.6,1.6-2.499,3.771-2.499,6.035v25.6
			c0,14.138-11.462,25.6-25.6,25.6s-25.6-11.462-25.6-25.6v-25.6c0.001-2.263-0.898-4.434-2.499-6.035
			c-1.6-1.6-3.771-2.499-6.035-2.499h-8.533C19.12,25.628,0.034,44.714,0.006,68.267v324.267
			c0.028,23.553,19.114,42.639,42.667,42.667h169.599c37.495,60.713,110.33,89.703,179.291,71.364s117.772-79.681,120.155-150.999
			c0.139-0.467,0.236-0.946,0.289-1.431V68.267C511.979,44.714,492.892,25.628,469.34,25.6z M449.021,221.867
			c-19.11-14.902-41.332-25.309-65.015-30.447v-46.353H494.94v76.8H449.021z M191.426,315.733h-46.353v-76.8h86.883
			C211.697,260.36,197.682,286.917,191.426,315.733z M247.473,145.067v76.8h-102.4v-76.8H247.473z M128.006,221.867H17.073v-76.8
			h110.933V221.867z M17.073,238.933h110.933v76.8H17.073V238.933z M264.54,145.067h102.4v43.584
			c-5.669-0.604-11.366-0.91-17.067-0.917c-30.182,0.014-59.752,8.515-85.333,24.532V145.067z M42.673,42.667v17.067
			c0,23.564,19.103,42.667,42.667,42.667s42.667-19.103,42.667-42.667V42.667h256v17.067c0,23.564,19.103,42.667,42.667,42.667
			c23.564,0,42.667-19.103,42.667-42.667V42.667c14.132,0.015,25.585,11.468,25.6,25.6V128H17.073V68.267
			C17.088,54.135,28.541,42.682,42.673,42.667z M17.073,392.533V332.8h110.933v85.333H42.673
			C28.541,418.118,17.088,406.665,17.073,392.533z M145.073,418.133V332.8h43.584c-0.604,5.669-0.91,11.366-0.917,17.067
			c0.024,23.601,5.241,46.907,15.279,68.267H145.073z M349.873,494.933c-80.118,0-145.067-64.949-145.067-145.067
			S269.755,204.8,349.873,204.8S494.94,269.749,494.94,349.867C494.85,429.948,429.954,494.844,349.873,494.933z M467.79,238.933
			h27.149v38.96C487.845,263.648,478.698,250.522,467.79,238.933z"/>
		<path d="M435.206,59.733v-51.2c0-4.713-3.821-8.533-8.533-8.533c-4.713,0-8.533,3.821-8.533,8.533v51.2
			c0,4.713,3.821,8.533,8.533,8.533C431.386,68.267,435.206,64.446,435.206,59.733z"/>
		<path d="M349.873,221.867c-70.692,0-128,57.308-128,128s57.308,128,128,128s128-57.308,128-128
			C477.794,279.207,420.533,221.945,349.873,221.867z M349.873,460.8c-61.267,0-110.933-49.667-110.933-110.933
			s49.667-110.933,110.933-110.933S460.806,288.6,460.806,349.867C460.737,411.105,411.111,460.731,349.873,460.8z"/>
		<path d="M358.406,346.333v-81.8c0-4.713-3.82-8.533-8.533-8.533s-8.533,3.821-8.533,8.533v85.333c0.001,2.263,0.9,4.433,2.5,6.033
			l42.667,42.667c3.341,3.281,8.701,3.256,12.012-0.054c3.311-3.311,3.335-8.671,0.054-12.012L358.406,346.333z"/>
	</g>
</g>
<g>
</g>
<g>
</g>
<g>
</g>
<g>
</g>
<g>
</g>
<g>
</g>
<g>
</g>
<g>
</g>
<g>
</g>
<g>
</g>
<g>
</g>
<g>
</g>
<g>
</g>
<g>
</g>
<g>
</g>
</svg>
