<?xml version="1.0" encoding="iso-8859-1"?>
<!-- Generator: Adobe Illustrator 19.0.0, SVG Export Plug-In . SVG Version: 6.00 Build 0)  -->
<svg version="1.1" id="Layer_1" xmlns="http://www.w3.org/2000/svg" xmlns:xlink="http://www.w3.org/1999/xlink" x="0px" y="0px"
	 viewBox="0 0 512 512" style="enable-background:new 0 0 512 512;" xml:space="preserve">
<g transform="translate(1 1)">
	<g>
		<g>
			<path d="M485.4,50.2h-0.825c-3.86-19.681-20.878-34.133-41.841-34.133c-20.963,0-37.981,14.452-41.841,34.133h-10.184
				c-3.86-19.681-20.878-34.133-41.841-34.133c-20.963,0-37.981,14.452-41.841,34.133h-10.184
				c-3.86-19.681-20.878-34.133-41.841-34.133c-20.963,0-37.981,14.452-41.841,34.133h-10.184
				c-3.86-19.681-20.878-34.133-41.841-34.133c-20.963,0-37.981,14.452-41.841,34.133h-10.184
				c-3.86-19.681-20.878-34.133-41.841-34.133c-20.963,0-37.981,14.452-41.841,34.133H24.6C10.093,50.2-1,61.293-1,75.8v68.267
				v324.267c0,14.507,11.093,25.6,25.6,25.6h460.8c14.507,0,25.6-11.093,25.6-25.6V144.067V75.8C511,61.293,499.907,50.2,485.4,50.2
				z M442.733,33.133c11.491,0,20.833,6.963,24.224,17.067h-48.448C421.9,40.097,431.243,33.133,442.733,33.133z M348.867,33.133
				c11.491,0,20.833,6.963,24.224,17.067h-48.448C328.033,40.097,337.376,33.133,348.867,33.133z M255,33.133
				c11.491,0,20.833,6.963,24.224,17.067h-48.448C234.167,40.097,243.509,33.133,255,33.133z M161.133,33.133
				c11.491,0,20.833,6.963,24.224,17.067h-48.448C140.3,40.097,149.643,33.133,161.133,33.133z M67.267,33.133
				c11.491,0,20.833,6.963,24.224,17.067H43.043C46.433,40.097,55.776,33.133,67.267,33.133z M16.067,75.8
				c0-5.12,3.413-8.533,8.533-8.533h66.891C88.1,77.37,78.757,84.333,67.267,84.333c-5.12,0-8.533,3.413-8.533,8.533
				s3.413,8.533,8.533,8.533c20.963,0,37.981-14.452,41.841-34.133h76.25c-3.391,10.103-12.734,17.067-24.224,17.067
				c-5.12,0-8.533,3.413-8.533,8.533s3.413,8.533,8.533,8.533c20.963,0,37.981-14.452,41.841-34.133h76.25
				C275.833,77.37,266.491,84.333,255,84.333c-5.12,0-8.533,3.413-8.533,8.533S249.88,101.4,255,101.4
				c20.963,0,37.981-14.452,41.841-34.133h76.25c-3.391,10.103-12.734,17.067-24.224,17.067c-5.12,0-8.533,3.413-8.533,8.533
				s3.413,8.533,8.533,8.533c20.963,0,37.981-14.452,41.841-34.133h76.25c-3.391,10.103-12.734,17.067-24.224,17.067
				c-5.12,0-8.533,3.413-8.533,8.533s3.413,8.533,8.533,8.533c20.963,0,37.981-14.452,41.841-34.133h0.825
				c5.12,0,8.533,3.413,8.533,8.533v59.733H16.067V75.8z M493.933,468.333c0,5.12-3.413,8.533-8.533,8.533H24.6
				c-5.12,0-8.533-3.413-8.533-8.533V152.6h477.867V468.333z"/>
			<path d="M75.8,255H127c5.12,0,8.533-3.413,8.533-8.533v-51.2c0-5.12-3.413-8.533-8.533-8.533H75.8
				c-5.12,0-8.533,3.413-8.533,8.533v51.2C67.267,251.587,70.68,255,75.8,255z M84.333,203.8h34.133v34.133H84.333V203.8z"/>
			<path d="M178.2,255h51.2c5.12,0,8.533-3.413,8.533-8.533v-51.2c0-5.12-3.413-8.533-8.533-8.533h-51.2
				c-5.12,0-8.533,3.413-8.533,8.533v51.2C169.667,251.587,173.08,255,178.2,255z M186.733,203.8h34.133v34.133h-34.133V203.8z"/>
			<path d="M280.6,255h51.2c5.12,0,8.533-3.413,8.533-8.533v-51.2c0-5.12-3.413-8.533-8.533-8.533h-51.2
				c-5.12,0-8.533,3.413-8.533,8.533v51.2C272.067,251.587,275.48,255,280.6,255z M289.133,203.8h34.133v34.133h-34.133V203.8z"/>
			<path d="M383,255h51.2c5.12,0,8.533-3.413,8.533-8.533v-51.2c0-5.12-3.413-8.533-8.533-8.533H383
				c-5.12,0-8.533,3.413-8.533,8.533v51.2C374.467,251.587,377.88,255,383,255z M391.533,203.8h34.133v34.133h-34.133V203.8z"/>
			<path d="M75.8,348.867H127c5.12,0,8.533-3.413,8.533-8.533v-51.2c0-5.12-3.413-8.533-8.533-8.533H75.8
				c-5.12,0-8.533,3.413-8.533,8.533v51.2C67.267,345.453,70.68,348.867,75.8,348.867z M84.333,297.667h34.133V331.8H84.333V297.667
				z"/>
			<path d="M178.2,348.867h51.2c5.12,0,8.533-3.413,8.533-8.533v-51.2c0-5.12-3.413-8.533-8.533-8.533h-51.2
				c-5.12,0-8.533,3.413-8.533,8.533v51.2C169.667,345.453,173.08,348.867,178.2,348.867z M186.733,297.667h34.133V331.8h-34.133
				V297.667z"/>
			<path d="M75.8,442.733H127c5.12,0,8.533-3.413,8.533-8.533V383c0-5.12-3.413-8.533-8.533-8.533H75.8
				c-5.12,0-8.533,3.413-8.533,8.533v51.2C67.267,439.32,70.68,442.733,75.8,442.733z M84.333,391.533h34.133v34.133H84.333V391.533
				z"/>
			<path d="M178.2,442.733h51.2c5.12,0,8.533-3.413,8.533-8.533V383c0-5.12-3.413-8.533-8.533-8.533h-51.2
				c-5.12,0-8.533,3.413-8.533,8.533v51.2C169.667,439.32,173.08,442.733,178.2,442.733z M186.733,391.533h34.133v34.133h-34.133
				V391.533z"/>
			<path d="M357.4,459.8c52.053,0,93.867-41.813,93.867-93.867c0-52.053-41.813-93.867-93.867-93.867s-93.867,41.813-93.867,93.867
				C263.533,417.987,305.347,459.8,357.4,459.8z M357.4,289.133c42.667,0,76.8,34.133,76.8,76.8c0,42.667-34.133,76.8-76.8,76.8
				s-76.8-34.133-76.8-76.8C280.6,323.267,314.733,289.133,357.4,289.133z"/>
			<path d="M342.893,414.573c1.707,1.707,3.413,2.56,5.973,2.56c3.413,0,5.973-1.707,6.827-4.267l51.2-76.8
				c2.56-4.267,1.707-9.387-2.56-11.947s-9.387-1.707-11.947,2.56l-45.227,68.267l-26.453-26.453c-3.413-3.413-8.533-3.413-11.947,0
				c-3.413,3.413-3.413,8.533,0,11.947L342.893,414.573z"/>
		</g>
	</g>
</g>
<g>
</g>
<g>
</g>
<g>
</g>
<g>
</g>
<g>
</g>
<g>
</g>
<g>
</g>
<g>
</g>
<g>
</g>
<g>
</g>
<g>
</g>
<g>
</g>
<g>
</g>
<g>
</g>
<g>
</g>
</svg>
