<?xml version="1.0" encoding="iso-8859-1"?>
<!-- Generator: Adobe Illustrator 19.0.0, SVG Export Plug-In . SVG Version: 6.00 Build 0)  -->
<svg version="1.1" id="Capa_1" xmlns="http://www.w3.org/2000/svg" xmlns:xlink="http://www.w3.org/1999/xlink" x="0px" y="0px"
	 viewBox="0 0 511.997 511.997" style="enable-background:new 0 0 511.997 511.997;" xml:space="preserve">
<path style="fill:#E7E8ED;" d="M451.466,42.67H8.533v460.792h443.726V51.203L451.466,42.67z M322.452,53.951
	c-0.742,2.458-1.749,4.83-2.995,7.074C320.703,58.78,321.701,56.408,322.452,53.951z M319.312,61.238
	c-1.109,1.911-2.406,3.712-3.874,5.367C316.906,64.95,318.203,63.158,319.312,61.238z M314.312,67.834
	c-1.357,1.425-2.85,2.714-4.454,3.848C311.461,70.548,312.955,69.259,314.312,67.834z M309.192,72.203
	c-1.775,1.143-3.678,2.091-5.666,2.824C305.514,74.302,307.417,73.355,309.192,72.203z M202.629,54.923
	c-0.435,1.254-0.853,2.492-1.417,3.669C201.75,57.398,202.22,56.178,202.629,54.923z M200.308,60.274
	c-0.555,1.092-1.161,2.15-1.826,3.174C199.148,62.424,199.753,61.366,200.308,60.274z M196.938,65.394
	c-0.606,0.759-1.178,1.562-1.835,2.261c0.657-0.674,1.229-1.476,1.835-2.236V65.394z M83.164,54.923
	c-0.435,1.254-0.853,2.492-1.417,3.669C82.286,57.398,82.755,56.178,83.164,54.923z M80.843,60.274
	c-0.555,1.092-1.161,2.15-1.826,3.174C79.683,62.424,80.289,61.366,80.843,60.274z M77.473,65.394
	c-0.606,0.759-1.178,1.562-1.835,2.261c0.657-0.674,1.229-1.476,1.835-2.236V65.394z M59.732,469.329V128.002H401.06V469.33H59.732
	V469.329z M425.499,67.68c0.657-0.7,1.229-1.502,1.835-2.261C426.728,66.179,426.156,66.981,425.499,67.68z M428.912,63.414
	c0.666-1.024,1.271-2.082,1.826-3.174c-0.563,1.101-1.186,2.167-1.86,3.208L428.912,63.414z M431.643,58.559
	c0.538-1.195,1.007-2.423,1.417-3.669c-0.427,1.289-0.905,2.526-1.451,3.703L431.643,58.559z"/>
<polygon style="fill:#BCBDC1;" points="452.234,42.636 503.458,452.237 452.234,503.462 "/>
<g>
	<path style="fill:#6E6F71;" d="M55.466,85.336V68.269c12.894-1.297,22.383-12.68,21.333-25.6c1.05-12.919-8.439-24.303-21.333-25.6
		c-12.902,1.297-22.391,12.68-21.333,25.6H17.066c-1.092-22.356,16.051-41.402,38.4-42.665C77.814,1.267,94.958,20.313,93.865,42.67
		C94.957,65.027,77.814,84.073,55.466,85.336z"/>
	<path style="fill:#6E6F71;" d="M174.93,85.336V68.269c12.894-1.297,22.383-12.68,21.333-25.6c1.05-12.919-8.439-24.303-21.333-25.6
		c-12.902,1.289-22.391,12.68-21.333,25.6h-17.066c-1.092-22.357,16.051-41.403,38.399-42.666
		c22.348,1.263,39.492,20.309,38.399,42.666C214.422,65.027,197.279,84.073,174.93,85.336z"/>
	<path style="fill:#6E6F71;" d="M294.395,85.336V68.269c12.894-1.297,22.383-12.68,21.333-25.6
		c1.05-12.919-8.439-24.303-21.333-25.6c-12.902,1.289-22.391,12.68-21.333,25.6h-17.066c-1.092-22.357,16.051-41.403,38.399-42.666
		c22.348,1.263,39.492,20.309,38.399,42.666C333.887,65.027,316.743,84.073,294.395,85.336z"/>
	<path style="fill:#6E6F71;" d="M405.327,85.336V68.269c12.894-1.297,22.383-12.68,21.333-25.6
		c1.05-12.919-8.439-24.303-21.333-25.6c-12.902,1.289-22.391,12.68-21.333,25.6h-17.066c-1.092-22.357,16.051-41.403,38.399-42.666
		c22.348,1.263,39.492,20.309,38.399,42.666C444.818,65.027,427.675,84.073,405.327,85.336z"/>
</g>
<g>
	<path style="fill:#58AACF;" d="M392.527,136.535v68.266h-68.266v-68.266H392.527z M366.927,179.201v-17.066h-17.066v17.066H366.927
		z"/>
	<path style="fill:#58AACF;" d="M221.863,136.535v68.266h-68.266v-68.266H221.863z M196.263,179.201v-17.066h-17.066v17.066H196.263
		z"/>
	<path style="fill:#58AACF;" d="M136.531,221.867v68.266H68.266v-68.266H136.531z M110.931,264.533v-17.066H93.865v17.066H110.931z"
		/>
	<path style="fill:#58AACF;" d="M307.195,221.867v68.266h-68.266v-68.266H307.195z M281.595,264.533v-17.066h-17.066v17.066H281.595
		z"/>
	<path style="fill:#58AACF;" d="M392.527,307.199v68.266h-68.266v-68.266H392.527z M366.927,349.865v-17.066h-17.066v17.066H366.927
		z"/>
</g>
<g>
	<path style="fill:#D6EAF1;" d="M392.527,392.531v68.266h-68.266v-68.266H392.527z M366.927,435.196V418.13h-17.066v17.066H366.927z
		"/>
	<path style="fill:#D6EAF1;" d="M392.527,221.867v68.266h-68.266v-68.266H392.527z M366.927,264.533v-17.066h-17.066v17.066H366.927
		z"/>
</g>
<g>
	<rect x="349.86" y="418.131" style="fill:#2368B5;" width="17.07" height="17.07"/>
	<rect x="349.86" y="332.801" style="fill:#2368B5;" width="17.07" height="17.07"/>
	<rect x="349.86" y="247.471" style="fill:#2368B5;" width="17.07" height="17.07"/>
	<rect x="349.86" y="162.131" style="fill:#2368B5;" width="17.07" height="17.07"/>
</g>
<path style="fill:#58AACF;" d="M307.195,392.531v68.266h-68.266v-68.266H307.195z M281.595,435.196V418.13h-17.066v17.066H281.595z"
	/>
<g>
	<path style="fill:#D6EAF1;" d="M307.195,307.199v68.266h-68.266v-68.266H307.195z M281.595,349.865v-17.066h-17.066v17.066H281.595
		z"/>
	<path style="fill:#D6EAF1;" d="M307.195,136.535v68.266h-68.266v-68.266H307.195z M281.595,179.201v-17.066h-17.066v17.066H281.595
		z"/>
</g>
<g>
	<rect x="264.53" y="418.131" style="fill:#2368B5;" width="17.07" height="17.07"/>
	<rect x="264.53" y="332.801" style="fill:#2368B5;" width="17.07" height="17.07"/>
	<rect x="264.53" y="247.471" style="fill:#2368B5;" width="17.07" height="17.07"/>
	<rect x="264.53" y="162.131" style="fill:#2368B5;" width="17.07" height="17.07"/>
</g>
<path style="fill:#D6EAF1;" d="M221.863,392.531v68.266h-68.266v-68.266H221.863z M196.263,435.196V418.13h-17.066v17.066H196.263z"
	/>
<path style="fill:#58AACF;" d="M221.863,307.199v68.266h-68.266v-68.266H221.863z M196.263,349.865v-17.066h-17.066v17.066H196.263z
	"/>
<g>
	<polygon style="fill:#D6EAF1;" points="221.863,233.899 221.863,278.1 199.762,255.999 	"/>
	<polygon style="fill:#D6EAF1;" points="209.831,221.867 187.73,243.968 165.629,221.867 	"/>
	<polygon style="fill:#D6EAF1;" points="209.831,290.132 165.629,290.132 187.73,268.031 	"/>
</g>
<g>
	<rect x="179.2" y="418.131" style="fill:#2368B5;" width="17.07" height="17.07"/>
	<rect x="179.2" y="332.801" style="fill:#2368B5;" width="17.07" height="17.07"/>
	<rect x="179.2" y="162.131" style="fill:#2368B5;" width="17.07" height="17.07"/>
</g>
<polygon style="fill:#D6EAF1;" points="175.698,255.999 153.597,278.1 153.597,233.899 "/>
<path style="fill:#58AACF;" d="M136.531,392.531v68.266H68.266v-68.266H136.531z M110.931,435.196V418.13H93.865v17.066H110.931z"/>
<g>
	<path style="fill:#D6EAF1;" d="M136.531,307.199v68.266H68.266v-68.266H136.531z M110.931,349.865v-17.066H93.865v17.066H110.931z"
		/>
	<path style="fill:#D6EAF1;" d="M136.531,136.535v68.266H68.266v-68.266H136.531z M110.931,179.201v-17.066H93.865v17.066H110.931z"
		/>
</g>
<g>
	<rect x="93.86" y="418.131" style="fill:#2368B5;" width="17.07" height="17.07"/>
	<rect x="93.86" y="332.801" style="fill:#2368B5;" width="17.07" height="17.07"/>
	<rect x="93.86" y="247.471" style="fill:#2368B5;" width="17.07" height="17.07"/>
	<rect x="93.86" y="162.131" style="fill:#2368B5;" width="17.07" height="17.07"/>
</g>
<path d="M401.06,119.468H59.732c-4.71,0-8.533,3.823-8.533,8.533v341.328c0,4.71,3.823,8.533,8.533,8.533H401.06
	c4.71,0,8.533-3.823,8.533-8.533V128.002C409.593,123.291,405.77,119.468,401.06,119.468z M136.531,460.796H68.266v-68.265h68.266
	L136.531,460.796L136.531,460.796z M136.531,375.464H68.266v-68.266h68.266L136.531,375.464L136.531,375.464z M136.531,290.132
	H68.266v-68.266h68.266L136.531,290.132L136.531,290.132z M136.531,204.8H68.266v-68.266h68.266L136.531,204.8L136.531,204.8z
	 M153.597,233.933L175.664,256l-22.067,22.067V233.933z M165.663,221.867h44.134l-22.067,22.067L165.663,221.867z M209.797,290.132
	h-44.134l22.067-22.067L209.797,290.132z M221.863,460.796h-68.266v-68.265h68.266V460.796z M221.863,375.464h-68.266v-68.266
	h68.266V375.464z M221.863,278.066l-22.067-22.067l22.067-22.067V278.066z M221.863,204.8h-68.266v-68.266h68.266V204.8z
	 M307.195,460.796h-68.266v-68.265h68.266V460.796z M307.195,375.464h-68.266v-68.266h68.266V375.464z M307.195,290.132h-68.266
	v-68.266h68.266V290.132z M307.195,204.8h-68.266v-68.266h68.266V204.8z M392.527,460.796h-68.266v-68.265h68.266V460.796z
	 M392.527,375.464h-68.266v-68.266h68.266V375.464z M392.527,290.132h-68.266v-68.266h68.266V290.132z M392.527,204.8h-68.266
	v-68.266h68.266V204.8z"/>
<path d="M8.533,511.995h443.726c2.27,0,4.437-0.905,6.042-2.509l51.199-51.199c1.86-1.86,2.756-4.48,2.432-7.091L460.733,41.603
	h-0.145c-0.486-4.232-4.062-7.441-8.328-7.467h-9.31c-2.031-20.778-20.523-35.975-41.301-33.945
	c-17.971,1.758-32.187,15.974-33.945,33.945h-35.686c-2.679-18.961-18.491-33.305-37.623-34.133
	c-19.131,0.828-34.943,15.172-37.623,34.133h-44.219c-2.679-18.96-18.491-33.305-37.623-34.132
	c-19.131,0.828-34.943,15.172-37.623,34.133H93.089C90.409,15.184,74.597,0.831,55.466,0.004
	c-19.132,0.827-34.944,15.18-37.623,34.133h-9.31C3.823,34.137,0,37.959,0,42.67v460.792C0,508.181,3.823,511.995,8.533,511.995z
	 M460.792,179.721l33.68,269.461l-33.68,33.68V179.721z M405.327,17.07c9.719,0.623,17.868,7.569,20.019,17.066h-40.038
	C387.458,24.648,395.607,17.702,405.327,17.07z M294.395,17.07c9.719,0.623,17.869,7.569,20.019,17.066h-40.038
	C276.527,24.648,284.676,17.702,294.395,17.07z M174.93,17.07c9.719,0.623,17.868,7.569,20.019,17.066h-40.038
	C157.062,24.648,165.211,17.702,174.93,17.07z M55.466,17.07c9.719,0.623,17.868,7.569,20.019,17.066H35.447
	C37.597,24.648,45.746,17.702,55.466,17.07z M17.066,51.203h58.418c-2.15,9.497-10.3,16.443-20.019,17.066v17.066
	c19.131-0.828,34.943-15.172,37.623-34.133h101.861c-2.15,9.497-10.3,16.443-20.019,17.066v17.066
	c19.131-0.828,34.943-15.172,37.623-34.133h101.861c-2.15,9.497-10.3,16.443-20.019,17.066v17.066
	c19.131-0.828,34.943-15.172,37.623-34.133h93.328c-2.15,9.497-10.3,16.443-20.019,17.066v17.066
	c19.131-0.828,34.943-15.172,37.623-34.133h0.777v443.726H17.066V51.203z"/>
<rect x="93.86" y="162.131" width="17.07" height="17.07"/>
<rect x="93.86" y="247.471" width="17.07" height="17.07"/>
<rect x="93.86" y="332.801" width="17.07" height="17.07"/>
<rect x="93.86" y="418.131" width="17.07" height="17.07"/>
<rect x="179.2" y="162.131" width="17.07" height="17.07"/>
<rect x="264.53" y="162.131" width="17.07" height="17.07"/>
<rect x="264.53" y="247.471" width="17.07" height="17.07"/>
<rect x="264.53" y="332.801" width="17.07" height="17.07"/>
<rect x="179.2" y="332.801" width="17.07" height="17.07"/>
<rect x="179.2" y="418.131" width="17.07" height="17.07"/>
<rect x="264.53" y="418.131" width="17.07" height="17.07"/>
<rect x="349.86" y="162.131" width="17.07" height="17.07"/>
<rect x="349.86" y="247.471" width="17.07" height="17.07"/>
<rect x="349.86" y="332.801" width="17.07" height="17.07"/>
<rect x="349.86" y="418.131" width="17.07" height="17.07"/>
<g>
</g>
<g>
</g>
<g>
</g>
<g>
</g>
<g>
</g>
<g>
</g>
<g>
</g>
<g>
</g>
<g>
</g>
<g>
</g>
<g>
</g>
<g>
</g>
<g>
</g>
<g>
</g>
<g>
</g>
</svg>
