<?xml version="1.0" encoding="iso-8859-1"?>
<!-- Generator: Adobe Illustrator 19.0.0, SVG Export Plug-In . SVG Version: 6.00 Build 0)  -->
<svg version="1.1" id="Capa_1" xmlns="http://www.w3.org/2000/svg" xmlns:xlink="http://www.w3.org/1999/xlink" x="0px" y="0px"
	 viewBox="0 0 511.999 511.999" style="enable-background:new 0 0 511.999 511.999;" xml:space="preserve">
<g>
	<g>
		<path d="M432.946,128h-24.061V96c0-26.811-21.703-48.65-48.504-48.984L342.92,6.084C341.346,2.395,337.715,0,333.695,0H135.194
			c-3.891,0-7.43,2.246-9.08,5.761L106.757,47.01C79.839,47.207,57.999,69.104,57.999,96v320c0,26.811,21.703,48.65,48.503,48.984
			l17.462,40.931c1.574,3.689,5.205,6.084,9.225,6.084H331.69c3.891,0,7.43-2.246,9.08-5.761l19.357-41.249
			c26.919-0.198,48.759-22.094,48.759-48.991V258h24.061c11.608,0,21.053-9.42,21.053-21v-88
			C453.999,137.42,444.554,128,432.946,128z M141.57,20h185.496l11.518,27H128.9L141.57,20z M325.314,492H139.818L128.3,465h209.685
			L325.314,492z M388.834,416c0,15.991-13.043,29-29.073,29H107.123c-16.031,0-29.073-13.009-29.073-29V96
			c0-15.991,13.042-29,29.073-29h252.638c16.031,0,29.073,13.009,29.073,29V416z M433.948,237c0,0.551-0.449,1-1.003,1h-24.061v-90
			h24.061c0.553,0,1.003,0.449,1.003,1V237z"/>
	</g>
</g>
<g>
	<g>
		<path d="M344.723,87H122.161C108.894,87,98.1,97.767,98.1,111v290c0,13.233,10.794,24,24.061,24h222.562
			c13.267,0,24.061-10.767,24.061-24V111C368.784,97.767,357.99,87,344.723,87z M348.733,401c0,2.168-1.837,4-4.01,4H122.161
			c-2.174,0-4.01-1.832-4.01-4V111c0-2.168,1.836-4,4.01-4h222.562c2.173,0,4.01,1.832,4.01,4V401z"/>
	</g>
</g>
<g>
	<g>
		<path d="M312.642,285H194.343c-5.537,0-10.025,4.477-10.025,10s4.488,10,10.025,10h118.299c5.536,0,10.025-4.477,10.025-10
			S318.178,285,312.642,285z"/>
	</g>
</g>
<g>
	<g>
		<path d="M154.242,325c-5.524,0-10.025,4.49-10.025,10v40c0,5.51,4.501,10,10.025,10c5.524,0,10.025-4.49,10.025-10v-40
			C164.267,329.49,159.766,325,154.242,325z"/>
	</g>
</g>
<g>
	<g>
		<path d="M154.242,285c-5.524,0-10.025,4.49-10.025,10s4.501,10,10.025,10c5.524,0,10.025-4.49,10.025-10S159.766,285,154.242,285z
			"/>
	</g>
</g>
<g>
	<g>
		<path d="M312.642,365H194.343c-5.537,0-10.025,4.477-10.025,10s4.488,10,10.025,10h118.299c5.536,0,10.025-4.477,10.025-10
			S318.178,365,312.642,365z"/>
	</g>
</g>
<g>
	<g>
		<path d="M269.593,128.461c-0.013,0-0.027,0-0.04,0c-16.646,0.011-28.371,8.116-36.129,16.719
			c-7.767-8.588-19.494-16.673-36.116-16.673c-0.011,0-0.022,0-0.033,0c-24.86,0-44.052,17.542-44.036,42.652
			c0.019,24.709,29.446,47.658,45.256,59.988c3.381,2.635,27.695,28.171,28.014,28.482c3.703,3.611,10.177,3.718,14.009-0.029
			c0.085-0.084,25.182-26.329,27.959-28.5c15.792-12.353,45.184-35.346,45.168-60.045
			C313.627,145.574,295.926,128.461,269.593,128.461z M256.108,215.361c-4.861,3.798-12.452,11.271-22.619,22.259
			c-10.268-11.077-17.711-18.381-22.645-22.228c-10.267-8.01-37.542-29.28-37.554-44.247c-0.011-14.087,10.155-22.629,24.016-22.638
			c13.93,0,22.584,10.169,27.39,18.701c3.732,6.626,13.779,6.6,17.49-0.014c4.791-8.541,13.431-18.725,27.408-18.733
			c15.243,0,23.99,8.239,24,22.608C293.605,186.028,266.36,207.34,256.108,215.361z"/>
	</g>
</g>
<g>
	<g>
		<path d="M212.389,325h-18.046c-5.537,0-10.025,4.477-10.025,10s4.488,10,10.025,10h18.046c5.537,0,10.025-4.477,10.025-10
			S217.926,325,212.389,325z"/>
	</g>
</g>
<g>
	<g>
		<path d="M253.493,325c-5.534,0-10.025,4.48-10.025,10c0,5.52,4.491,10,10.025,10c5.533,0,10.025-4.48,10.025-10
			C263.518,329.48,259.026,325,253.493,325z"/>
	</g>
</g>
<g>
	<g>
		<path d="M312.642,325h-18.046c-5.536,0-10.025,4.477-10.025,10s4.489,10,10.025,10h18.046c5.536,0,10.025-4.477,10.025-10
			S318.178,325,312.642,325z"/>
	</g>
</g>
<g>
</g>
<g>
</g>
<g>
</g>
<g>
</g>
<g>
</g>
<g>
</g>
<g>
</g>
<g>
</g>
<g>
</g>
<g>
</g>
<g>
</g>
<g>
</g>
<g>
</g>
<g>
</g>
<g>
</g>
</svg>
